<?xml version="1.0" encoding="iso-8859-1"?>
<!-- Uploaded to: SVG Repo, www.svgrepo.com, Generator: SVG Repo Mixer Tools -->
<svg fill="#000000" height="800px" width="800px" version="1.1" id="Layer_1" xmlns="http://www.w3.org/2000/svg" xmlns:xlink="http://www.w3.org/1999/xlink" 
	 viewBox="0 0 512.006 512.006" xml:space="preserve">
<g>
	<g>
		<path d="M490.667,138.681l-63.573-0.021l4.416-22.101c0.64-0.149,1.28-0.107,1.92-0.32l64-21.333
			c11.157-3.712,17.195-15.808,13.483-26.987c-3.712-11.157-15.744-17.259-26.987-13.483l-42.837,14.272l6.507-32.512
			c2.304-11.563-5.184-22.784-16.725-25.109c-11.584-2.304-22.827,5.163-25.109,16.725l-20.053,100.352l-14.293,14.293
			l-40.789,20.395l10.069-40.341c2.88-11.435-4.075-23.019-15.509-25.877c-11.477-2.944-23.019,4.096-25.856,15.531l-21.333,85.333
			c-0.448,1.707-0.661,3.435-0.661,5.184v42.667c0,1.877,0.619,3.584,1.088,5.333c-14.357,2.901-30.464,2.901-44.821,0
			c0.469-1.749,1.067-3.456,1.067-5.333v-42.667c0-1.749-0.192-3.477-0.64-5.184l-21.333-85.333
			c-2.859-11.435-14.485-18.453-25.856-15.531c-11.435,2.859-18.389,14.443-15.509,25.877l10.069,40.341l-40.789-20.395
			l-14.293-14.293L106.261,27.812c-2.325-11.52-13.44-19.072-25.109-16.725c-11.541,2.325-19.029,13.547-16.725,25.109l6.507,32.512
			L28.096,54.436C16.832,50.66,4.821,56.761,1.109,67.918c-3.733,11.179,2.325,23.275,13.483,26.987l64,21.333
			c0.64,0.213,1.28,0.171,1.899,0.32l4.437,22.101l-63.595,0.021C9.557,138.681,0,148.217,0,160.014
			c0,11.776,9.579,21.333,21.333,21.333l101.589-0.021L192,215.865v29.483c0,0.064,0.043,0.128,0.043,0.192
			c-14.379,0.171-27.52,3.989-37.248,10.965c-5.824,4.181-12.139,10.325-17.195,19.136c-14.507-12.992-32.149-22.016-51.243-25.408
			c-14.229-2.539-29.525-3.179-45.44-1.856c-7.701,0.64-14.443,5.376-17.664,12.416c-3.179,7.019-2.347,15.232,2.219,21.461
			c0.128,0.149,11.947,16.533,17.579,32.405c9.984,28.032,30.357,49.365,55.915,58.496c12.544,4.501,31.744,6.507,47.765,6.507
			c1.856,0,3.477-0.085,5.227-0.149c0.363,0.469,0.619,0.96,0.981,1.429c13.824,17.003,21.952,32.491,22.464,42.688
			c-0.789,7.829-1.557,32.405,15.744,52.587C205.44,492.9,227.264,501.348,256,501.348c28.757,0,50.581-8.448,64.853-25.131
			c17.323-20.181,16.555-44.757,15.765-52.587c0.512-10.197,8.64-25.685,22.443-42.688c0.363-0.469,0.619-0.96,0.981-1.429
			c1.749,0.064,3.392,0.149,5.227,0.149c16.021,0,35.243-2.005,47.787-6.507c25.557-9.131,45.931-30.464,55.915-58.517
			c5.653-15.936,17.472-32.256,17.6-32.405c4.544-6.229,5.376-14.443,2.176-21.461c-3.243-7.019-9.963-11.755-17.664-12.395
			c-15.936-1.323-31.189-0.683-45.397,1.856c-19.179,3.392-36.864,12.459-51.392,25.515c-4.245-7.253-9.195-12.949-13.888-16.811
			c-10.347-8.469-25.003-13.141-40.448-13.355c0-0.085,0.043-0.149,0.043-0.235v-29.483l69.099-34.539l101.568,0.021
			c11.776,0,21.333-9.557,21.333-21.333C512,148.217,502.464,138.681,490.667,138.681z M113.344,332.985
			c-13.461-4.821-24.427-16.704-30.08-32.619c-0.939-2.667-2.005-5.312-3.136-7.893c18.987,3.797,35.691,17.024,44.864,35.627
			l2.752,5.611l0.576,2.24C121.941,335.204,116.523,334.137,113.344,332.985z M384.277,333.71l2.773-5.611
			c9.152-18.581,25.835-31.829,44.843-35.627c-1.131,2.581-2.176,5.227-3.136,7.893c-5.675,15.915-16.619,27.797-30.08,32.619
			c-3.179,1.152-8.597,2.219-14.976,2.965L384.277,333.71z"/>
	</g>
</g>
</svg>